<svg width="28" height="22" viewBox="0 0 28 22" fill="none" xmlns="http://www.w3.org/2000/svg">
<path d="M7.55126 5.59253C7.28143 4.81303 7.86036 4 8.68524 4H26.3752C27.1826 4 27.7596 4.78124 27.5222 5.5529L24.2606 16.1529C24.1057 16.6564 23.6405 17 23.1137 17H12.3545C11.843 17 11.3878 16.6758 11.2205 16.1925L7.55126 5.59253Z" fill="#333639"/>
<path d="M5 1L9 5.5" stroke="#333639" stroke-width="2.5"/>
<path d="M0 1C0 0.447715 0.447343 0 0.999628 0C3.25661 0 6 0 6 0V2H1C0.447715 2 0 1.55228 0 1V1Z" fill="#333639"/>
<path d="M0 1C0 0.447715 0.447343 0 0.999628 0C3.25661 0 6 0 6 0V2H1C0.447715 2 0 1.55228 0 1V1Z" fill="#333639"/>
<circle cx="15" cy="20" r="2" fill="#333639"/>
<circle cx="21" cy="20" r="2" fill="#333639"/>
</svg>
