<svg width="134" height="23" viewBox="0 0 134 23" fill="none" xmlns="http://www.w3.org/2000/svg">
<path d="M13.013 3.046V6.745H5.291V10.741H11.069V14.332H5.291V22H0.674V3.046H13.013ZM30.3166 6.934V22H25.6996V19.948C25.2316 20.614 24.5926 21.154 23.7826 21.568C22.9906 21.964 22.1086 22.162 21.1366 22.162C19.9846 22.162 18.9676 21.91 18.0856 21.406C17.2036 20.884 16.5196 20.137 16.0336 19.165C15.5476 18.193 15.3046 17.05 15.3046 15.736V6.934H19.8946V15.115C19.8946 16.123 20.1556 16.906 20.6776 17.464C21.1996 18.022 21.9016 18.301 22.7836 18.301C23.6836 18.301 24.3946 18.022 24.9166 17.464C25.4386 16.906 25.6996 16.123 25.6996 15.115V6.934H30.3166ZM38.25 9.445C38.79 8.617 39.465 7.969 40.275 7.501C41.085 7.015 41.985 6.772 42.975 6.772V11.659H41.706C40.554 11.659 39.69 11.911 39.114 12.415C38.538 12.901 38.25 13.765 38.25 15.007V22H33.633V6.934H38.25V9.445ZM54.3618 6.772C56.1258 6.772 57.5298 7.348 58.5738 8.5C59.6358 9.634 60.1668 11.2 60.1668 13.198V22H55.5768V13.819C55.5768 12.811 55.3158 12.028 54.7938 11.47C54.2718 10.912 53.5698 10.633 52.6878 10.633C51.8058 10.633 51.1038 10.912 50.5818 11.47C50.0598 12.028 49.7988 12.811 49.7988 13.819V22H45.1818V6.934H49.7988V8.932C50.2668 8.266 50.8968 7.744 51.6888 7.366C52.4808 6.97 53.3718 6.772 54.3618 6.772ZM65.6972 5.368C64.8872 5.368 64.2212 5.134 63.6992 4.666C63.1952 4.18 62.9432 3.586 62.9432 2.884C62.9432 2.164 63.1952 1.57 63.6992 1.102C64.2212 0.615999 64.8872 0.372998 65.6972 0.372998C66.4892 0.372998 67.1372 0.615999 67.6412 1.102C68.1632 1.57 68.4242 2.164 68.4242 2.884C68.4242 3.586 68.1632 4.18 67.6412 4.666C67.1372 5.134 66.4892 5.368 65.6972 5.368ZM67.9922 6.934V22H63.3752V6.934H67.9922ZM79.7351 18.085V22H77.3861C75.7121 22 74.4071 21.595 73.4711 20.785C72.5351 19.957 72.0671 18.616 72.0671 16.762V10.768H70.2311V6.934H72.0671V3.262H76.6841V6.934H79.7081V10.768H76.6841V16.816C76.6841 17.266 76.7921 17.59 77.0081 17.788C77.2241 17.986 77.5841 18.085 78.0881 18.085H79.7351ZM97.1838 6.934V22H92.5668V19.948C92.0988 20.614 91.4598 21.154 90.6498 21.568C89.8578 21.964 88.9758 22.162 88.0038 22.162C86.8518 22.162 85.8348 21.91 84.9528 21.406C84.0708 20.884 83.3868 20.137 82.9008 19.165C82.4148 18.193 82.1718 17.05 82.1718 15.736V6.934H86.7618V15.115C86.7618 16.123 87.0228 16.906 87.5448 17.464C88.0668 18.022 88.7688 18.301 89.6508 18.301C90.5508 18.301 91.2618 18.022 91.7838 17.464C92.3058 16.906 92.5668 16.123 92.5668 15.115V6.934H97.1838ZM105.117 9.445C105.657 8.617 106.332 7.969 107.142 7.501C107.952 7.015 108.852 6.772 109.842 6.772V11.659H108.573C107.421 11.659 106.557 11.911 105.981 12.415C105.405 12.901 105.117 13.765 105.117 15.007V22H100.5V6.934H105.117V9.445ZM126.251 14.224C126.251 14.656 126.224 15.106 126.17 15.574H115.721C115.793 16.51 116.09 17.23 116.612 17.734C117.152 18.22 117.809 18.463 118.583 18.463C119.735 18.463 120.536 17.977 120.986 17.005H125.9C125.648 17.995 125.189 18.886 124.523 19.678C123.875 20.47 123.056 21.091 122.066 21.541C121.076 21.991 119.969 22.216 118.745 22.216C117.269 22.216 115.955 21.901 114.803 21.271C113.651 20.641 112.751 19.741 112.103 18.571C111.455 17.401 111.131 16.033 111.131 14.467C111.131 12.901 111.446 11.533 112.076 10.363C112.724 9.193 113.624 8.293 114.776 7.663C115.928 7.033 117.251 6.718 118.745 6.718C120.203 6.718 121.499 7.024 122.633 7.636C123.767 8.248 124.649 9.121 125.279 10.255C125.927 11.389 126.251 12.712 126.251 14.224ZM121.526 13.009C121.526 12.217 121.256 11.587 120.716 11.119C120.176 10.651 119.501 10.417 118.691 10.417C117.917 10.417 117.26 10.642 116.72 11.092C116.198 11.542 115.874 12.181 115.748 13.009H121.526ZM130.847 22.216C130.037 22.216 129.371 21.982 128.849 21.514C128.345 21.028 128.093 20.434 128.093 19.732C128.093 19.012 128.345 18.409 128.849 17.923C129.371 17.437 130.037 17.194 130.847 17.194C131.639 17.194 132.287 17.437 132.791 17.923C133.313 18.409 133.574 19.012 133.574 19.732C133.574 20.434 133.313 21.028 132.791 21.514C132.287 21.982 131.639 22.216 130.847 22.216Z" fill="#333639"/>
</svg>
